<svg width="116" height="115" viewBox="0 0 116 115" fill="none" xmlns="http://www.w3.org/2000/svg">
<circle cx="58" cy="57.5" r="56" stroke="white" stroke-width="3"/>
<path d="M23.8817 58.18C23.6857 58.404 23.5177 58.6 23.4057 58.768C22.3137 60.574 20.2417 63.094 18.0717 64.69L16.6717 63.402C18.5197 62.114 20.0877 60.21 20.8157 58.922C19.5837 58.922 14.4877 58.922 13.4237 58.922C12.8497 58.922 12.0937 58.992 11.7997 59.034V57.06C12.1777 57.13 12.9337 57.2 13.4237 57.2C14.3057 57.2 19.6817 57.2 21.1797 57.2C21.7257 57.2 22.1877 57.144 22.4957 57.046L23.8817 58.18ZM16.5037 64.9C15.6777 64.074 14.2497 62.8 13.4237 62.212L14.8937 61.008C15.6497 61.582 17.0497 62.716 18.1137 63.738C19.0377 64.634 20.1437 65.796 20.8157 66.608L19.1637 67.924C18.5897 67.14 17.4137 65.824 16.5037 64.9ZM25.8277 60.518C26.3457 60.56 27.3537 60.616 28.0817 60.616C29.7337 60.616 34.3537 60.616 35.5997 60.616C36.2577 60.616 36.8737 60.546 37.2517 60.518V62.73C36.9157 62.716 36.2017 62.646 35.6137 62.646C34.3397 62.646 29.7337 62.646 28.0817 62.646C27.2977 62.646 26.3597 62.688 25.8277 62.73V60.518ZM44.8257 56.038C44.6717 56.402 44.4897 56.878 44.3637 57.186C44.1257 57.886 43.6917 58.922 43.3277 59.636C42.7677 60.742 41.8157 62.086 40.8917 62.912L39.1277 61.848C40.1357 61.106 41.0317 59.846 41.5637 58.964C41.9417 58.32 42.2077 57.578 42.3757 57.046C42.5297 56.584 42.6417 56.052 42.6697 55.618L44.8257 56.038ZM42.6137 58.208C43.7337 58.208 49.0537 58.208 50.0197 58.208C50.3697 58.208 51.0137 58.18 51.4757 58.11V60.014C50.9437 59.972 50.3417 59.972 50.0197 59.972C49.0397 59.972 43.7337 59.972 42.4737 59.972L42.6137 58.208ZM48.0877 59.216C47.9897 63.346 46.5197 66.076 43.8177 67.77L41.9277 66.51C42.4317 66.3 42.9217 66.02 43.2437 65.74C44.8397 64.522 46.0857 62.59 46.1417 59.216H48.0877ZM55.0943 56.276C55.5423 56.332 56.1163 56.374 56.5923 56.374C57.4743 56.374 61.3943 56.374 62.2203 56.374C62.6823 56.374 63.2423 56.332 63.7183 56.276V58.082C63.2423 58.054 62.6963 58.026 62.2203 58.026C61.3943 58.026 57.4743 58.026 56.5923 58.026C56.1163 58.026 55.5143 58.054 55.0943 58.082V56.276ZM53.4563 59.846C53.8763 59.902 54.3663 59.93 54.8003 59.93C55.6823 59.93 63.1443 59.93 63.9703 59.93C64.2643 59.93 64.8803 59.916 65.2583 59.846V61.666C64.8943 61.652 64.3623 61.638 63.9703 61.638C63.1443 61.638 55.6823 61.638 54.8003 61.638C54.3943 61.638 53.8483 61.652 53.4563 61.68V59.846ZM60.6243 60.826C60.6243 62.66 60.3023 64.06 59.7003 65.222C59.2243 66.202 58.1323 67.28 56.9003 67.924L55.2483 66.734C56.2423 66.342 57.2363 65.544 57.7823 64.718C58.4823 63.654 58.6783 62.338 58.6783 60.84L60.6243 60.826ZM66.9303 63.024C68.7643 62.618 70.8363 61.68 71.9423 61.008C73.3143 60.182 74.7143 58.936 75.4423 58.026L76.8283 59.384C75.9883 60.294 74.2943 61.61 72.7683 62.506C71.5083 63.248 69.3523 64.186 67.7563 64.662L66.9303 63.024ZM71.7883 62.114L73.6923 61.75V66.72C73.6923 67.224 73.7063 67.966 73.7903 68.246H71.7043C71.7463 67.966 71.7883 67.224 71.7883 66.72V62.114ZM82.8203 56.36C83.7863 57.018 85.6063 58.474 86.4323 59.328L85.0043 60.784C84.2763 60 82.5123 58.474 81.4903 57.774L82.8203 56.36ZM81.0563 65.684C83.2543 65.376 85.0603 64.662 86.4183 63.864C88.8123 62.436 90.6323 60.308 91.5283 58.418L92.6063 60.378C91.5563 62.282 89.6943 64.214 87.4403 65.572C86.0123 66.426 84.2063 67.196 82.2463 67.532L81.0563 65.684ZM104.352 55.534C104.702 56.052 105.192 56.934 105.458 57.452L104.338 57.942C104.044 57.368 103.61 56.528 103.232 55.996L104.352 55.534ZM106.004 54.904C106.368 55.436 106.886 56.318 107.138 56.808L106.018 57.284C105.724 56.71 105.276 55.884 104.898 55.366L106.004 54.904ZM105.598 58.614C105.444 58.894 105.248 59.272 105.136 59.622C104.758 60.868 103.96 62.744 102.7 64.298C101.37 65.922 99.6763 67.21 97.0443 68.246L95.3923 66.776C98.2623 65.908 99.8163 64.69 101.034 63.304C101.986 62.212 102.798 60.532 103.022 59.496H98.3043L98.9483 57.9C99.5783 57.9 102.504 57.9 102.952 57.9C103.386 57.9 103.848 57.844 104.17 57.732L105.598 58.614ZM101.034 56.402C100.712 56.892 100.348 57.536 100.18 57.83C99.2423 59.524 97.5623 61.498 95.5603 62.87L93.9783 61.708C96.4423 60.21 97.6603 58.404 98.3603 57.2C98.5703 56.864 98.8643 56.206 98.9903 55.73L101.034 56.402ZM49.606 81.778C51.048 84.536 54.1 86.146 58.608 86.65C58.23 87.042 57.768 87.812 57.53 88.288C52.812 87.616 49.844 85.74 48.024 82.324L49.606 81.778ZM46.652 80.252H55.626V81.89H46.652V80.252ZM45.966 76.962H57.964V78.628H45.966V76.962ZM51.076 75.114H52.826V80.994H51.076V75.114ZM55.08 80.252H55.444L55.738 80.196L56.914 80.868C55.234 85.404 51.16 87.448 46.302 88.26C46.148 87.812 45.714 87.014 45.392 86.636C50.096 86.02 53.806 84.368 55.08 80.56V80.252ZM64.236 78.95H71.964V80.266H64.236V78.95ZM63.942 80.91H72.398V82.268H63.942V80.91ZM65.762 82.828H70.494V84.046H65.762V82.828ZM64.572 77.438L65.846 77.088C66.07 77.592 66.35 78.292 66.476 78.712L65.132 79.132C65.034 78.698 64.782 77.97 64.572 77.438ZM67.008 77.186L68.324 76.962C68.478 77.508 68.632 78.236 68.702 78.67L67.316 78.964C67.274 78.516 67.148 77.76 67.008 77.186ZM71.054 75.184L71.992 76.416C69.864 76.85 66.84 77.06 64.32 77.088C64.292 76.724 64.11 76.178 63.956 75.842C66.434 75.772 69.304 75.548 71.054 75.184ZM67.148 83.766C68.1 85.404 70.102 86.496 72.72 86.902C72.384 87.238 71.95 87.868 71.74 88.288C68.954 87.7 66.98 86.314 65.804 84.158L67.148 83.766ZM70.242 76.696L71.796 77.144C71.278 77.998 70.69 78.908 70.228 79.51L69.066 79.09C69.486 78.432 69.99 77.424 70.242 76.696ZM70.158 82.828H70.466L70.732 82.786L71.642 83.15C70.816 86.16 68.772 87.616 66.112 88.288C65.944 87.938 65.496 87.322 65.202 87.042C67.708 86.538 69.514 85.39 70.158 83.052V82.828ZM65.916 79.776H67.526C67.302 82.758 66.854 86.244 63.816 88.232C63.592 87.84 63.13 87.308 62.738 87.028C65.496 85.334 65.734 82.226 65.916 79.776ZM59.336 82.604C60.456 82.352 62.108 81.904 63.704 81.47L63.914 82.982C62.43 83.43 60.848 83.878 59.574 84.242L59.336 82.604ZM59.504 77.774H63.788V79.314H59.504V77.774ZM60.988 75.128H62.528V86.482C62.528 87.266 62.388 87.7 61.954 87.952C61.534 88.218 60.932 88.274 60.022 88.274C59.98 87.854 59.784 87.168 59.588 86.706C60.092 86.734 60.582 86.734 60.75 86.72C60.918 86.72 60.988 86.678 60.988 86.482V75.128Z" fill="white"/>
<g clip-path="url(#clip0_1_289)">
<path d="M68.605 23.3535C68.3814 22.9472 67.8696 22.8006 67.4657 23.0235C67.0595 23.2472 66.9121 23.7573 67.1358 24.1628C68.0179 25.7631 68.4838 27.5806 68.4838 29.4193C68.4838 35.4312 63.5926 40.3225 57.5807 40.3225C51.5688 40.3225 46.6775 35.4312 46.6775 29.4193C46.6775 23.4075 51.5688 18.5162 57.5807 18.5162C60.4515 18.5162 63.1609 19.6226 65.2108 21.6311C65.5417 21.9552 66.0725 21.9495 66.3969 21.6195C66.7211 21.2886 66.7163 20.7571 66.3854 20.4337C64.0199 18.1157 60.8928 16.8386 57.5807 16.8386C50.6433 16.8386 45 22.4819 45 29.4193C45 36.3567 50.6433 42 57.5807 42C64.5181 42 70.1614 36.3567 70.1614 29.4193C70.1614 27.2981 69.6232 25.2004 68.605 23.3535Z" fill="white"/>
<path d="M57.5807 20.1935C52.4936 20.1935 48.3549 24.3323 48.3549 29.4193C48.3549 34.5064 52.4936 38.6452 57.5807 38.6452C62.6678 38.6452 66.8066 34.5064 66.8066 29.4193C66.8066 24.3323 62.6678 20.1935 57.5807 20.1935ZM57.5807 36.9677C53.4182 36.9677 50.0324 33.5819 50.0324 29.4193C50.0324 25.257 53.4182 21.871 57.5807 21.871C61.743 21.871 65.129 25.257 65.129 29.4193C65.129 33.5819 61.743 36.9677 57.5807 36.9677Z" fill="white"/>
<path d="M57.5807 24.3872C54.8056 24.3872 52.5483 26.6445 52.5483 29.4193C52.5483 32.1944 54.8056 34.4517 57.5807 34.4517C60.3556 34.4517 62.6128 32.1944 62.6128 29.4193C62.6128 26.6445 60.3556 24.3872 57.5807 24.3872ZM57.5807 32.7742C55.7304 32.7742 54.2259 31.2696 54.2259 29.4193C54.2259 27.5693 55.7304 26.0645 57.5807 26.0645C59.4308 26.0645 60.9355 27.5693 60.9355 29.4193C60.9355 31.2696 59.4308 32.7742 57.5807 32.7742Z" fill="white"/>
<path d="M70.1613 18.5162H69.3224C69.3224 18.3014 69.2406 18.0869 69.0767 17.9233C68.9128 17.7594 68.6983 17.6775 68.4838 17.6775V16.8386C68.4838 16.3751 68.1087 16 67.6451 16C67.1816 16 66.8065 16.3751 66.8065 16.8386V19.0076L57.4069 28.407C57.0794 28.7347 57.0794 29.2655 57.4069 29.5931C57.5708 29.7567 57.7853 29.8388 57.9998 29.8388C58.2146 29.8388 58.4291 29.7567 58.593 29.5931L67.9924 20.1935H70.1613C70.6249 20.1935 71 19.8184 71 19.3548C71 18.8912 70.6249 18.5162 70.1613 18.5162Z" fill="#11CCD1"/>
</g>
<defs>
<clipPath id="clip0_1_289">
<rect width="26" height="26" fill="white" transform="translate(45 16)"/>
</clipPath>
</defs>
</svg>
