<svg xmlns="http://www.w3.org/2000/svg" width="223mm" height="51.97mm" viewBox="0 0 632.14 147.32"><defs><style>.cls-1{isolation:isolate;}.cls-2{fill:#fff;}</style></defs><g id="レイヤー_2" data-name="レイヤー 2"><g id="白抜き"><g id="JAPAN_AI" data-name="JAPAN AI" class="cls-1"><g class="cls-1"><path class="cls-2" d="M219.85,90.94c0,23.21-11,30.45-26.43,30.45a37.06,37.06,0,0,1-11.49-1.73l1.61-11a25.55,25.55,0,0,0,8.73,1.38c8.85,0,14.25-3.9,14.25-19.53V32.11h13.33Z"/></g><g id="JAPAN_AI-2" data-name="JAPAN AI" class="cls-1"><g class="cls-1"><path class="cls-2" d="M301.31,121.38h-14l-7.93-25.85H252.48l-7.58,25.85H231.23l26.88-87.89h16.32ZM277.19,85.31l-6.9-23c-1.61-5.75-3.1-11.95-4.36-17.35h-.23c-1.27,5.4-2.65,11.83-4.14,17.23l-7,23.1Z"/></g><g id="JAPAN_AI-3" data-name="JAPAN AI" class="cls-1"><g class="cls-1"><path class="cls-2" d="M312.45,34.52a123.73,123.73,0,0,1,21.38-1.72c10.8,0,18.95,2.3,24.24,7C363,44.06,366,50.72,366,58.76c0,21.38-17,28.73-32.86,28.73a37.15,37.15,0,0,1-7.47-.58v34.47H312.45Zm13.22,41.71a27.61,27.61,0,0,0,7.47.69c12.18,0,19.53-6.32,19.53-17.58,0-10.69-7.35-16.09-18-16.09a45.87,45.87,0,0,0-9,.81Z"/></g><g id="JAPAN_AI-4" data-name="JAPAN AI" class="cls-1"><g class="cls-1"><path class="cls-2" d="M436.37,121.39h-14l-7.93-25.86H387.54L380,121.39H366.28l26.89-87.9h16.32ZM412.24,85.31l-6.89-23c-1.61-5.75-3.1-11.95-4.37-17.35h-.23c-1.26,5.4-2.64,11.83-4.13,17.23l-7,23.1Z"/></g><g id="JAPAN_AI-5" data-name="JAPAN AI" class="cls-1"><g class="cls-1"><path class="cls-2" d="M510.9,121.38H497.46l-23.1-41.13a286.08,286.08,0,0,1-14.59-29.76l-.46.12c.69,11.14.92,22.52.92,37.91v32.86H447.94V33.49h14.47l23,40.67a249,249,0,0,1,14.25,29.07l.35-.11c-1-12-1.38-23.21-1.38-37.23V33.49H510.9Z"/></g></g></g></g></g><g class="cls-1"><path class="cls-2" d="M608.09,121.39h-14l-7.92-25.86H559.26l-7.58,25.86H538l26.89-87.9h16.32ZM584,85.31l-6.89-23C575.46,56.58,574,50.38,572.7,45h-.23c-1.26,5.4-2.64,11.83-4.13,17.23l-7,23.1Z"/></g><g id="JAPAN_AI-6" data-name="JAPAN AI" class="cls-1"><g class="cls-1"><path class="cls-2" d="M618.81,33.49h13.33v87.9H618.81Z"/></g></g></g><path class="cls-2" d="M70,147.32c-38.6,0-70-33-70-73.66S31.41,0,70,0s70,33,70,73.66S108.61,147.32,70,147.32Zm0-142C34.32,5.29,5.29,36,5.29,73.66S34.32,142,70,142s64.71-30.67,64.71-68.36S105.69,5.29,70,5.29Z"/><path class="cls-2" d="M84.89,147.32c-38.6,0-70-33-70-73.66S46.29,0,84.89,0s70,33,70,73.66S123.49,147.32,84.89,147.32Zm0-142C49.21,5.29,20.18,36,20.18,73.66S49.21,142,84.89,142s64.72-30.67,64.72-68.36S120.58,5.29,84.89,5.29Z"/><path class="cls-2" d="M76.94,138C47.86,138,24.2,113.4,24.2,83.21S47.86,28.44,76.94,28.44,129.68,53,129.68,83.21,106,138,76.94,138Zm0-106.25c-27.28,0-49.46,23.1-49.46,51.49S49.66,134.7,76.94,134.7s49.46-23.1,49.46-51.49S104.21,31.72,76.94,31.72Z"/><circle class="cls-2" cx="130.4" cy="111.88" r="23.8"/></g></g></svg>